# xmcd
#
# Track frame offsets:
#	150
#	23184
#	42769
#	60929
#	85159
#	115549
#	139984
#	162994
#	197057
#
# Disc length: 2957 seconds
#
# Revision: 2
# Processed by: cddbd v1.5.2PL0 Copyright (c) Steve Scherf et al.
# Submitted via: EasyCDDAExtractor 11.0.0.1
#
DISCID=6c0b8b09
DTITLE=The Levon Helm Band - Midnight Ramble Sessions, Vol.02
DYEAR=2004
DGENRE=Blues
TTITLE0=Battle Is Over But The War Goes On
TTITLE1=What Kind Of Man Are You
TTITLE2=Don't Ya Tell Henry
TTITLE3=Blue Shadows
TTITLE4=All About John
TTITLE5=I Want To Know
TTITLE6=A Fool In Love
TTITLE7=Borrowed Time
TTITLE8=When The Battle Is Over
EXTD=
EXTT0=
EXTT1=
EXTT2=
EXTT3=
EXTT4=
EXTT5=
EXTT6=
EXTT7=
EXTT8=
PLAYORDER=
